{
  "asset": {
    "version": "2.0",
    "generator": "Sketchup glTF Exporter v1.2.6 by Centaur"
  },
  "scene": 0,
  "scenes": [
    {
      "nodes": [
        0
      ]
    }
  ],
  "samplers": [
    {
    }
  ],
  "nodes": [
    {
      "name": "root",
      "children": [
        1
      ]
    },
    {
      "name": "Corn",
      "children": [
        2,
        3,
        4,
        5,
        6,
        7,
        8,
        9,
        10,
        11,
        12,
        13,
        14,
        15,
        16,
        17,
        20,
        21,
        22,
        23,
        24,
        25
      ],
      "mesh": 23
    },
    {
      "name": "Leaf3",
      "mesh": 0
    },
    {
      "name": "Leaf1",
      "mesh": 1
    },
    {
      "name": "Leaf5",
      "mesh": 2
    },
    {
      "name": "Leaf2",
      "mesh": 3
    },
    {
      "name": "Leaf4",
      "mesh": 4
    },
    {
      "name": "Leaf2",
      "mesh": 5
    },
    {
      "name": "Stalk",
      "mesh": 6
    },
    {
      "name": "Leaf3",
      "mesh": 7
    },
    {
      "name": "Leaf4",
      "mesh": 8
    },
    {
      "name": "Leaf1",
      "mesh": 9
    },
    {
      "name": "Leaf5",
      "mesh": 10
    },
    {
      "name": "Leaf2",
      "mesh": 11
    },
    {
      "name": "Leaf5",
      "mesh": 12
    },
    {
      "name": "Leaf1",
      "mesh": 13
    },
    {
      "name": "Leaf1",
      "mesh": 14
    },
    {
      "children": [
        18,
        19
      ]
    },
    {
      "name": "Cob",
      "mesh": 15
    },
    {
      "name": "Cob",
      "mesh": 16
    },
    {
      "name": "Pollen",
      "mesh": 17
    },
    {
      "name": "Pollen",
      "mesh": 18
    },
    {
      "name": "Pollen",
      "mesh": 19
    },
    {
      "name": "Pollen",
      "mesh": 20
    },
    {
      "name": "Pollen",
      "mesh": 21
    },
    {
      "name": "Pollen",
      "mesh": 22
    }
  ],
  "materials": [
    {
      "pbrMetallicRoughness": {
        "baseColorFactor": [
          0.0781,
          0.1511,
          0.0399,
          1.0
        ],
        "metallicFactor": 0.1,
        "roughnessFactor": 0.9
      },
      "name": "Leaf"
    },
    {
      "pbrMetallicRoughness": {
        "baseColorFactor": [
          0.139,
          0.2508,
          0.0987,
          1.0
        ],
        "metallicFactor": 0.1,
        "roughnessFactor": 0.9
      },
      "name": "Stalk"
    },
    {
      "pbrMetallicRoughness": {
        "baseColorFactor": [
          0.2176,
          0.2176,
          0.2176,
          1.0
        ],
        "metallicFactor": 0.1,
        "roughnessFactor": 0.9
      },
      "name": "default material",
      "doubleSided": true
    },
    {
      "pbrMetallicRoughness": {
        "baseColorFactor": [
          1.0,
          0.9406,
          0.4647,
          1.0
        ],
        "metallicFactor": 0.1,
        "roughnessFactor": 0.9
      },
      "name": "Tassel"
    }
  ],
  "meshes": [
    {
      "primitives": [
        {
          "attributes": {
            "POSITION": 0,
            "NORMAL": 1
          },
          "indices": 2,
          "mode": 4,
          "material": 0
        }
      ]
    },
    {
      "primitives": [
        {
          "attributes": {
            "POSITION": 0,
            "NORMAL": 1
          },
          "indices": 3,
          "mode": 4,
          "material": 0
        }
      ]
    },
    {
      "primitives": [
        {
          "attributes": {
            "POSITION": 0,
            "NORMAL": 1
          },
          "indices": 4,
          "mode": 4,
          "material": 0
        }
      ]
    },
    {
      "primitives": [
        {
          "attributes": {
            "POSITION": 0,
            "NORMAL": 1
          },
          "indices": 5,
          "mode": 4,
          "material": 0
        }
      ]
    },
    {
      "primitives": [
        {
          "attributes": {
            "POSITION": 0,
            "NORMAL": 1
          },
          "indices": 6,
          "mode": 4,
          "material": 0
        }
      ]
    },
    {
      "primitives": [
        {
          "attributes": {
            "POSITION": 0,
            "NORMAL": 1
          },
          "indices": 7,
          "mode": 4,
          "material": 0
        }
      ]
    },
    {
      "primitives": [
        {
          "attributes": {
            "POSITION": 0,
            "NORMAL": 1
          },
          "indices": 8,
          "mode": 4,
          "material": 1
        },
        {
          "attributes": {
            "POSITION": 0,
            "NORMAL": 1
          },
          "indices": 9,
          "mode": 4,
          "material": 0
        }
      ]
    },
    {
      "primitives": [
        {
          "attributes": {
            "POSITION": 0,
            "NORMAL": 1
          },
          "indices": 10,
          "mode": 4,
          "material": 0
        }
      ]
    },
    {
      "primitives": [
        {
          "attributes": {
            "POSITION": 0,
            "NORMAL": 1
          },
          "indices": 11,
          "mode": 4,
          "material": 0
        }
      ]
    },
    {
      "primitives": [
        {
          "attributes": {
            "POSITION": 0,
            "NORMAL": 1
          },
          "indices": 12,
          "mode": 4,
          "material": 0
        }
      ]
    },
    {
      "primitives": [
        {
          "attributes": {
            "POSITION": 0,
            "NORMAL": 1
          },
          "indices": 13,
          "mode": 4,
          "material": 0
        }
      ]
    },
    {
      "primitives": [
        {
          "attributes": {
            "POSITION": 0,
            "NORMAL": 1
          },
          "indices": 14,
          "mode": 4,
          "material": 0
        }
      ]
    },
    {
      "primitives": [
        {
          "attributes": {
            "POSITION": 0,
            "NORMAL": 1
          },
          "indices": 15,
          "mode": 4,
          "material": 0
        }
      ]
    },
    {
      "primitives": [
        {
          "attributes": {
            "POSITION": 0,
            "NORMAL": 1
          },
          "indices": 16,
          "mode": 4,
          "material": 0
        }
      ]
    },
    {
      "primitives": [
        {
          "attributes": {
            "POSITION": 0,
            "NORMAL": 1
          },
          "indices": 17,
          "mode": 4,
          "material": 0
        }
      ]
    },
    {
      "primitives": [
        {
          "attributes": {
            "POSITION": 0,
            "NORMAL": 1
          },
          "indices": 18,
          "mode": 4,
          "material": 2
        }
      ]
    },
    {
      "primitives": [
        {
          "attributes": {
            "POSITION": 0,
            "NORMAL": 1
          },
          "indices": 19,
          "mode": 4,
          "material": 2
        }
      ]
    },
    {
      "primitives": [
        {
          "attributes": {
            "POSITION": 0,
            "NORMAL": 1
          },
          "indices": 20,
          "mode": 4,
          "material": 3
        }
      ]
    },
    {
      "primitives": [
        {
          "attributes": {
            "POSITION": 0,
            "NORMAL": 1
          },
          "indices": 21,
          "mode": 4,
          "material": 3
        }
      ]
    },
    {
      "primitives": [
        {
          "attributes": {
            "POSITION": 0,
            "NORMAL": 1
          },
          "indices": 22,
          "mode": 4,
          "material": 3
        }
      ]
    },
    {
      "primitives": [
        {
          "attributes": {
            "POSITION": 0,
            "NORMAL": 1
          },
          "indices": 23,
          "mode": 4,
          "material": 3
        }
      ]
    },
    {
      "primitives": [
        {
          "attributes": {
            "POSITION": 0,
            "NORMAL": 1
          },
          "indices": 24,
          "mode": 4,
          "material": 3
        }
      ]
    },
    {
      "primitives": [
        {
          "attributes": {
            "POSITION": 0,
            "NORMAL": 1
          },
          "indices": 25,
          "mode": 4,
          "material": 3
        }
      ]
    },
    {
      "primitives": [
        {
          "attributes": {
            "POSITION": 0,
            "NORMAL": 1
          },
          "indices": 26,
          "mode": 4,
          "material": 3
        }
      ]
    }
  ],
  "accessors": [
    {
      "bufferView": 0,
      "componentType": 5126,
      "count": 12633,
      "type": "VEC3",
      "min": [
        -0.38588925341184027,
        -1.605486751579998e-17,
        -0.39968007502619496
      ],
      "max": [
        0.3819602626007272,
        2.1336,
        0.21802708260466053
      ]
    },
    {
      "bufferView": 1,
      "componentType": 5126,
      "count": 12633,
      "type": "VEC3",
      "min": [
        -0.9999971532532358,
        -1.0,
        -0.9999993218463809
      ],
      "max": [
        0.9999973147264943,
        1.0,
        0.9999993218463809
      ]
    },
    {
      "bufferView": 2,
      "componentType": 5123,
      "count": 2562,
      "type": "SCALAR"
    },
    {
      "bufferView": 2,
      "componentType": 5123,
      "count": 2082,
      "type": "SCALAR",
      "byteOffset": 5124
    },
    {
      "bufferView": 2,
      "componentType": 5123,
      "count": 3228,
      "type": "SCALAR",
      "byteOffset": 9288
    },
    {
      "bufferView": 2,
      "componentType": 5123,
      "count": 4542,
      "type": "SCALAR",
      "byteOffset": 15744
    },
    {
      "bufferView": 2,
      "componentType": 5123,
      "count": 3756,
      "type": "SCALAR",
      "byteOffset": 24828
    },
    {
      "bufferView": 2,
      "componentType": 5123,
      "count": 4542,
      "type": "SCALAR",
      "byteOffset": 32340
    },
    {
      "bufferView": 2,
      "componentType": 5123,
      "count": 144,
      "type": "SCALAR",
      "byteOffset": 41424
    },
    {
      "bufferView": 2,
      "componentType": 5123,
      "count": 132,
      "type": "SCALAR",
      "byteOffset": 41712
    },
    {
      "bufferView": 2,
      "componentType": 5123,
      "count": 2562,
      "type": "SCALAR",
      "byteOffset": 41976
    },
    {
      "bufferView": 2,
      "componentType": 5123,
      "count": 3756,
      "type": "SCALAR",
      "byteOffset": 47100
    },
    {
      "bufferView": 2,
      "componentType": 5123,
      "count": 2082,
      "type": "SCALAR",
      "byteOffset": 54612
    },
    {
      "bufferView": 2,
      "componentType": 5123,
      "count": 3228,
      "type": "SCALAR",
      "byteOffset": 58776
    },
    {
      "bufferView": 2,
      "componentType": 5123,
      "count": 4542,
      "type": "SCALAR",
      "byteOffset": 65232
    },
    {
      "bufferView": 2,
      "componentType": 5123,
      "count": 3228,
      "type": "SCALAR",
      "byteOffset": 74316
    },
    {
      "bufferView": 2,
      "componentType": 5123,
      "count": 2082,
      "type": "SCALAR",
      "byteOffset": 80772
    },
    {
      "bufferView": 2,
      "componentType": 5123,
      "count": 2082,
      "type": "SCALAR",
      "byteOffset": 84936
    },
    {
      "bufferView": 2,
      "componentType": 5123,
      "count": 564,
      "type": "SCALAR",
      "byteOffset": 89100
    },
    {
      "bufferView": 2,
      "componentType": 5123,
      "count": 564,
      "type": "SCALAR",
      "byteOffset": 90228
    },
    {
      "bufferView": 2,
      "componentType": 5123,
      "count": 3723,
      "type": "SCALAR",
      "byteOffset": 91356
    },
    {
      "bufferView": 2,
      "componentType": 5123,
      "count": 3723,
      "type": "SCALAR",
      "byteOffset": 98802
    },
    {
      "bufferView": 2,
      "componentType": 5123,
      "count": 3723,
      "type": "SCALAR",
      "byteOffset": 106248
    },
    {
      "bufferView": 2,
      "componentType": 5123,
      "count": 3723,
      "type": "SCALAR",
      "byteOffset": 113694
    },
    {
      "bufferView": 2,
      "componentType": 5123,
      "count": 3723,
      "type": "SCALAR",
      "byteOffset": 121140
    },
    {
      "bufferView": 2,
      "componentType": 5123,
      "count": 3723,
      "type": "SCALAR",
      "byteOffset": 128586
    },
    {
      "bufferView": 2,
      "componentType": 5123,
      "count": 276,
      "type": "SCALAR",
      "byteOffset": 136032
    }
  ],
  "bufferViews": [
    {
      "buffer": 0,
      "byteLength": 151596,
      "target": 34962,
      "byteStride": 12
    },
    {
      "buffer": 0,
      "byteOffset": 151596,
      "byteLength": 151596,
      "target": 34962,
      "byteStride": 12
    },
    {
      "buffer": 0,
      "byteOffset": 303192,
      "byteLength": 136584,
      "target": 34963
    }
  ],
  "buffers": [
    {
      "uri": "data:application/octet-stream;base64,",
      "byteLength": 439776
    }
  ]
}